<svg id="app-icon" viewBox="0 0 512 512" xmlns="http://www.w3.org/2000/svg" style="width:180px;height:180px;">
        <rect width="512" height="512" rx="100" fill="#0B5E49"/>
        <circle cx="256" cy="256" r="220" fill="#0D6E56" opacity="0.35"/>
        <!-- 5-color status ring using stroke-dasharray; circumference≈1231 -->
        <circle cx="256" cy="256" r="196" fill="none" stroke="#FF6B8A" stroke-width="18" stroke-dasharray="219 1013" stroke-linecap="round" transform="rotate(-90,256,256)"/>
        <circle cx="256" cy="256" r="196" fill="none" stroke="#FFB347" stroke-width="18" stroke-dasharray="219 1013" stroke-linecap="round" transform="rotate(-18,256,256)"/>
        <circle cx="256" cy="256" r="196" fill="none" stroke="#4ECDC4" stroke-width="18" stroke-dasharray="219 1013" stroke-linecap="round" transform="rotate(54,256,256)"/>
        <circle cx="256" cy="256" r="196" fill="none" stroke="#C084FC" stroke-width="18" stroke-dasharray="219 1013" stroke-linecap="round" transform="rotate(126,256,256)"/>
        <circle cx="256" cy="256" r="196" fill="none" stroke="#60A5FA" stroke-width="18" stroke-dasharray="219 1013" stroke-linecap="round" transform="rotate(198,256,256)"/>
        <!-- Phone body -->
        <rect x="178" y="120" width="156" height="272" rx="26" fill="white"/>
        <rect x="190" y="136" width="132" height="222" rx="14" fill="#0B5E49"/>
        <rect x="224" y="124" width="64" height="16" rx="8" fill="#CBD5E1"/>
        <rect x="218" y="372" width="76" height="6" rx="3" fill="#CBD5E1"/>
        <!-- Download arrow on screen -->
        <line x1="256" y1="168" x2="256" y2="230" stroke="white" stroke-width="13" stroke-linecap="round"/>
        <polyline points="231,215 256,246 281,215" fill="none" stroke="white" stroke-width="13" stroke-linecap="round" stroke-linejoin="round"/>
        <line x1="230" y1="265" x2="282" y2="265" stroke="white" stroke-width="11" stroke-linecap="round"/>
        <!-- Green save badge -->
        <circle cx="354" cy="364" r="42" fill="#1A8F5C"/>
        <circle cx="354" cy="364" r="36" fill="#25D366"/>
        <polyline points="337,364 350,377 371,352" fill="none" stroke="white" stroke-width="8" stroke-linecap="round" stroke-linejoin="round"/>
      </svg>